<svg width="24" height="16" viewBox="0 0 24 16" fill="none" xmlns="http://www.w3.org/2000/svg">
<path d="M9.83776 8.47386L2.02432 15.0651H21.9683L14.1586 8.47396L13.1008 9.35635L9.83776 8.47386ZM9.83776 8.47386L10.8992 9.35635C11.2133 9.61924 11.6094 9.74773 12 9.74773C12.3905 9.74773 12.7866 9.61928 13.1007 9.35645L9.83776 8.47386ZM22.5308 14.6398V14.6949C22.5264 14.7273 22.5181 14.7587 22.5063 14.7886L14.5981 8.11171L22.5285 1.51438C22.53 1.52853 22.5308 1.54287 22.5308 1.55745V14.6398ZM11.2697 8.93837L1.88423 1.1263C1.89523 1.12544 1.90626 1.125 1.91729 1.125H22.0827C22.0951 1.125 22.1073 1.1255 22.1193 1.12647L12.734 8.93837L12.734 8.93838C12.3161 9.2863 11.6876 9.2863 11.2698 8.93838L11.2697 8.93837ZM1.46915 1.55387V1.50889L9.40195 8.11168L1.49591 14.784C1.47867 14.7383 1.46915 14.6897 1.46915 14.6398V1.55387ZM22.0827 0.574805H1.91729C1.35899 0.574805 0.9 1.00869 0.9 1.55387V14.6398C0.9 15.185 1.35899 15.6189 1.91729 15.6189H22.0827C22.641 15.6189 23.1 15.185 23.1 14.6398V1.55387C23.1 1.00869 22.641 0.574805 22.0827 0.574805Z" fill="#1266f1" stroke="#1266f1" stroke-width="0.2"/>
</svg>
