<svg width="22" height="22" viewBox="0 0 22 22" fill="none" xmlns="http://www.w3.org/2000/svg">
<path d="M4.51348 1.00021C3.98105 1.01102 3.75132 1.17588 3.43241 1.54074L1.54053 3.70288C1.14594 4.15423 1 4.85963 1 5.59475C1 8.04878 2.84593 12.0352 6.40535 15.5947C9.96477 19.1541 13.9512 21 16.4052 21C17.1404 21 17.8458 20.8541 18.2971 20.4595L20.4593 18.5676C20.8241 18.2487 20.989 18.0189 20.9998 17.4865C21.0079 17.0946 20.7755 16.7217 20.4593 16.4055L17.4863 13.4325C17.1539 13.1001 16.8647 12.892 16.4052 12.892C15.9269 12.892 15.6188 13.1379 15.3242 13.4325L14.2431 14.5136C13.7485 14.9893 13.3783 15.0271 12.8918 14.7838L7.21615 9.10823C6.97291 8.62175 7.01075 8.25148 7.48642 7.75689L8.56749 6.67582C8.86208 6.38123 9.10802 6.07313 9.10802 5.59475C9.10802 5.1353 8.89992 4.84611 8.56749 4.51368L5.59455 1.54074C5.27833 1.22453 4.90537 0.992098 4.51348 1.00021Z" stroke="#1266f1"/>
</svg>
